<?xml version="1.0" encoding="UTF-8"?>
<svg xmlns="http://www.w3.org/2000/svg" xmlns:xlink="http://www.w3.org/1999/xlink" width="53px" height="53px" viewBox="0 0 53 53" version="1.1">
<g id="surface1">
<path style=" stroke:none;fill-rule:nonzero;fill:rgb(87%,18%,27%);fill-opacity:1;" d="M 4.660156 0.164062 C 3.683594 0.371094 2.773438 0.859375 1.996094 1.582031 C 1.148438 2.378906 0.621094 3.179688 0.300781 4.160156 L 0.0507812 4.917969 L 0.0507812 48.082031 L 0.300781 48.839844 C 0.902344 50.671875 2.382812 52.152344 4.191406 52.71875 L 4.917969 52.949219 L 48.1875 52.949219 L 48.878906 52.710938 C 50.679688 52.089844 52.160156 50.589844 52.71875 48.808594 L 52.949219 48.082031 L 52.949219 26.5 C 52.949219 5.828125 52.9375 4.886719 52.761719 4.296875 C 52.511719 3.507812 52.296875 3.09375 51.746094 2.351562 C 51.242188 1.667969 50.320312 0.921875 49.53125 0.558594 C 48.269531 -0.03125 49.335938 0 26.417969 0.0117188 C 8.726562 0.0195312 5.226562 0.0429688 4.660156 0.164062 Z M 28.519531 9.988281 C 29.097656 10.226562 29.386719 10.433594 29.96875 11.015625 C 31.054688 12.109375 31.1875 12.421875 34.171875 20.804688 C 34.914062 22.886719 35.867188 25.539062 36.292969 26.707031 C 36.726562 27.875 37.660156 30.453125 38.375 32.453125 C 39.078125 34.441406 39.84375 36.5625 40.0625 37.164062 C 40.652344 38.777344 40.785156 39.316406 40.785156 39.957031 C 40.785156 41.167969 40.214844 42.089844 39.109375 42.636719 C 38.539062 42.929688 38.375 42.960938 37.523438 42.960938 C 36.675781 42.960938 36.511719 42.929688 35.941406 42.636719 C 35.320312 42.328125 34.875 41.882812 34.542969 41.25 C 34.460938 41.074219 34.058594 39.90625 33.644531 38.640625 L 32.898438 36.335938 L 20.300781 36.335938 L 19.574219 38.550781 C 18.726562 41.167969 18.5 41.65625 17.847656 42.222656 C 17.257812 42.742188 16.582031 42.960938 15.570312 42.960938 C 13.550781 42.960938 12.132812 41.519531 12.234375 39.59375 C 12.277344 38.828125 12.804688 37.347656 16.066406 28.621094 C 16.75 26.800781 17.929688 23.613281 18.683594 21.53125 C 20.722656 15.929688 21.820312 13.0625 22.183594 12.378906 C 22.804688 11.210938 24.253906 10.03125 25.421875 9.742188 C 25.652344 9.679688 26.273438 9.648438 26.8125 9.667969 C 27.597656 9.699219 27.9375 9.761719 28.519531 9.988281 Z M 28.519531 9.988281 "/>
<path style=" stroke:none;fill-rule:nonzero;fill:rgb(87%,18%,27%);fill-opacity:1;" d="M 26.167969 18.03125 C 25.570312 19.917969 22.359375 29.679688 22.296875 29.855469 C 22.234375 30 22.691406 30.019531 26.542969 30.019531 C 28.910156 30.019531 30.847656 30.007812 30.847656 29.988281 C 30.847656 29.96875 30.246094 28.113281 29.523438 25.867188 C 28.796875 23.621094 27.847656 20.683594 27.421875 19.335938 C 26.996094 17.980469 26.632812 16.871094 26.605469 16.871094 C 26.574219 16.871094 26.375 17.402344 26.167969 18.03125 Z M 26.167969 18.03125 "/>
</g>
</svg>
